<svg id="Component_4_1" data-name="Component 4 – 1" xmlns="http://www.w3.org/2000/svg" xmlns:xlink="http://www.w3.org/1999/xlink" width="315" height="522" viewBox="0 0 315 522">
  <defs>
    <filter id="V_T_T_A_L" x="66" y="30" width="74" height="464" filterUnits="userSpaceOnUse">
      <feOffset dx="3" dy="3" input="SourceAlpha"/>
      <feGaussianBlur stdDeviation="3" result="blur"/>
      <feFlood flood-opacity="0.376"/>
      <feComposite operator="in" in2="blur"/>
      <feComposite in="SourceGraphic"/>
    </filter>
    <radialGradient id="radial-gradient" cx="0.5" cy="0.5" r="0.377" gradientUnits="objectBoundingBox">
      <stop offset="0" stop-color="#cceaf7"/>
      <stop offset="1" stop-color="#fdffc3"/>
    </radialGradient>
    <filter id="I" x="73" y="104" width="46" height="99" filterUnits="userSpaceOnUse">
      <feOffset dy="3" input="SourceAlpha"/>
      <feGaussianBlur stdDeviation="3" result="blur-2"/>
      <feFlood flood-opacity="0.161"/>
      <feComposite operator="in" in2="blur-2"/>
      <feComposite in="SourceGraphic"/>
    </filter>
  </defs>
  <rect id="Rectangle_55" data-name="Rectangle 55" width="140" height="30" transform="translate(175 150)" fill="#fff"/>
  <rect id="Rectangle_56" data-name="Rectangle 56" width="140" height="31" transform="translate(175 348)" fill="#fff"/>
  <path id="Path_6" data-name="Path 6" d="M10067,2542.954l178.638-183.857v-41.154H10067Z" transform="translate(-10054 -2310)" fill="#e8d155"/>
  <path id="Path_7" data-name="Path 7" d="M10067,2557.611l179,91.352V2358.549l-179,153.335Z" transform="translate(-10054 -2310)" fill="#40eeee"/>
  <path id="Path_8" data-name="Path 8" d="M10067,2762.287l179.352,80.441V2700.944L10067,2597.123Z" transform="translate(-10054 -2364.169)" fill="#e2539f"/>
  <path id="Path_9" data-name="Path 9" d="M10067,2821h179.128v-34.556L10067,2708.2Z" transform="translate(-10054 -2310)" fill="#8aff67"/>
  <g transform="matrix(1, 0, 0, 1, 0, 0)" filter="url(#V_T_T_A_L)">
    <text id="V_T_T_A_L-2" data-name="V

T
T
A
L" transform="translate(77 98)" fill="#fff" stroke="#fff" stroke-width="4" font-size="60" font-family="Montserrat-Bold, Montserrat" font-weight="700"><tspan x="0" y="0">V</tspan><tspan x="0" y="73"></tspan><tspan x="0" y="146">T</tspan><tspan x="0" y="219">T</tspan><tspan x="0" y="292">A</tspan><tspan x="0" y="365">L</tspan></text>
  </g>
  <ellipse id="Ellipse_65" data-name="Ellipse 65" cx="11" cy="10.5" rx="11" ry="10.5" fill="url(#radial-gradient)"/>
  <ellipse id="Ellipse_66" data-name="Ellipse 66" cx="11" cy="10.5" rx="11" ry="10.5" transform="translate(181)" fill="url(#radial-gradient)"/>
  <ellipse id="Ellipse_67" data-name="Ellipse 67" cx="11" cy="10.5" rx="11" ry="10.5" transform="translate(181 497)" fill="url(#radial-gradient)"/>
  <ellipse id="Ellipse_68" data-name="Ellipse 68" cx="11" cy="10.5" rx="11" ry="10.5" transform="translate(2 501)" fill="url(#radial-gradient)"/>
  <ellipse id="Ellipse_69" data-name="Ellipse 69" cx="11" cy="10.5" rx="11" ry="10.5" transform="translate(2 462)" fill="url(#radial-gradient)"/>
  <ellipse id="Ellipse_70" data-name="Ellipse 70" cx="11" cy="10.5" rx="11" ry="10.5" transform="translate(2 423)" fill="url(#radial-gradient)"/>
  <ellipse id="Ellipse_71" data-name="Ellipse 71" cx="11" cy="10.5" rx="11" ry="10.5" transform="translate(2 384)" fill="url(#radial-gradient)"/>
  <ellipse id="Ellipse_72" data-name="Ellipse 72" cx="11" cy="10.5" rx="11" ry="10.5" transform="translate(2 345)" fill="url(#radial-gradient)"/>
  <ellipse id="Ellipse_73" data-name="Ellipse 73" cx="11" cy="10.5" rx="11" ry="10.5" transform="translate(2 306)" fill="url(#radial-gradient)"/>
  <ellipse id="Ellipse_74" data-name="Ellipse 74" cx="11" cy="10.5" rx="11" ry="10.5" transform="translate(0 267)" fill="url(#radial-gradient)"/>
  <ellipse id="Ellipse_75" data-name="Ellipse 75" cx="11" cy="10.5" rx="11" ry="10.5" transform="translate(0 228)" fill="url(#radial-gradient)"/>
  <ellipse id="Ellipse_76" data-name="Ellipse 76" cx="11" cy="10.5" rx="11" ry="10.5" transform="translate(0 189)" fill="url(#radial-gradient)"/>
  <ellipse id="Ellipse_77" data-name="Ellipse 77" cx="11" cy="10.5" rx="11" ry="10.5" transform="translate(0 150)" fill="url(#radial-gradient)"/>
  <ellipse id="Ellipse_78" data-name="Ellipse 78" cx="11" cy="10.5" rx="11" ry="10.5" transform="translate(0 111)" fill="url(#radial-gradient)"/>
  <ellipse id="Ellipse_79" data-name="Ellipse 79" cx="11" cy="10.5" rx="11" ry="10.5" transform="translate(0 72)" fill="url(#radial-gradient)"/>
  <ellipse id="Ellipse_80" data-name="Ellipse 80" cx="11" cy="10.5" rx="11" ry="10.5" transform="translate(0 33)" fill="url(#radial-gradient)"/>
  <ellipse id="Ellipse_81" data-name="Ellipse 81" cx="11" cy="10.5" rx="11" ry="10.5" transform="translate(42)" fill="url(#radial-gradient)"/>
  <ellipse id="Ellipse_82" data-name="Ellipse 82" cx="11" cy="10.5" rx="11" ry="10.5" transform="translate(89)" fill="url(#radial-gradient)"/>
  <ellipse id="Ellipse_83" data-name="Ellipse 83" cx="11" cy="10.5" rx="11" ry="10.5" transform="translate(135)" fill="url(#radial-gradient)"/>
  <ellipse id="Ellipse_84" data-name="Ellipse 84" cx="11" cy="10.5" rx="11" ry="10.5" transform="translate(183 33)" fill="url(#radial-gradient)"/>
  <ellipse id="Ellipse_85" data-name="Ellipse 85" cx="11" cy="10.5" rx="11" ry="10.5" transform="translate(183 72)" fill="url(#radial-gradient)"/>
  <ellipse id="Ellipse_86" data-name="Ellipse 86" cx="11" cy="10.5" rx="11" ry="10.5" transform="translate(183 111)" fill="url(#radial-gradient)"/>
  <ellipse id="Ellipse_87" data-name="Ellipse 87" cx="11" cy="10.5" rx="11" ry="10.5" transform="translate(183 150)" fill="url(#radial-gradient)"/>
  <ellipse id="Ellipse_88" data-name="Ellipse 88" cx="11" cy="10.5" rx="11" ry="10.5" transform="translate(183 189)" fill="url(#radial-gradient)"/>
  <ellipse id="Ellipse_89" data-name="Ellipse 89" cx="11" cy="10.5" rx="11" ry="10.5" transform="translate(183 228)" fill="url(#radial-gradient)"/>
  <ellipse id="Ellipse_90" data-name="Ellipse 90" cx="11" cy="10.5" rx="11" ry="10.5" transform="translate(183 267)" fill="url(#radial-gradient)"/>
  <ellipse id="Ellipse_91" data-name="Ellipse 91" cx="11" cy="10.5" rx="11" ry="10.5" transform="translate(183 306)" fill="url(#radial-gradient)"/>
  <ellipse id="Ellipse_92" data-name="Ellipse 92" cx="11" cy="10.5" rx="11" ry="10.5" transform="translate(181 345)" fill="url(#radial-gradient)"/>
  <ellipse id="Ellipse_93" data-name="Ellipse 93" cx="11" cy="10.5" rx="11" ry="10.5" transform="translate(181 384)" fill="url(#radial-gradient)"/>
  <ellipse id="Ellipse_94" data-name="Ellipse 94" cx="11" cy="10.5" rx="11" ry="10.5" transform="translate(181 423)" fill="url(#radial-gradient)"/>
  <ellipse id="Ellipse_95" data-name="Ellipse 95" cx="11" cy="10.5" rx="11" ry="10.5" transform="translate(181 462)" fill="url(#radial-gradient)"/>
  <ellipse id="Ellipse_96" data-name="Ellipse 96" cx="11" cy="10.5" rx="11" ry="10.5" transform="translate(42 501)" fill="url(#radial-gradient)"/>
  <ellipse id="Ellipse_97" data-name="Ellipse 97" cx="11" cy="10.5" rx="11" ry="10.5" transform="translate(89 501)" fill="url(#radial-gradient)"/>
  <ellipse id="Ellipse_98" data-name="Ellipse 98" cx="11" cy="10.5" rx="11" ry="10.5" transform="translate(135 501)" fill="url(#radial-gradient)"/>
  <g transform="matrix(1, 0, 0, 1, 0, 0)" filter="url(#I)">
    <text id="I-2" data-name="I" transform="translate(86 172)" fill="#fff" stroke="#fff" stroke-width="4" font-size="60" font-family="Montserrat-Bold, Montserrat" font-weight="700"><tspan x="0" y="0">I</tspan></text>
  </g>
</svg>
